PathFileType	4	(X/Y/Z)	Run_300 02
DataRate	CameraRate	NumFrames	NumMarkers	Units	OrigDataRate	OrigDataStartFrame	OrigNumFrames
120	120	8	42	mm	120	552	128
Frame#	Time	LASI			RASI			LPSI			RPSI			RTH1			RTH2			RTH3			LTH1			LTH2			LTH3			RTB1			RTB2			LTB1			LTB2			LTB3			RCAL			RTOE			RMT5			LCAL			LTOE			LMT5			LACR			RACR			CLAV			C7			RUA1			RUA2			RUA3			RLEL			RMEL			LUA1			LUA2			LUA3			LLEL			LMEL			RFAsuperior			RFAradius			RFAulna			LFAsuperior			LFAradius			LFAulna			RTB3		
		X1	Y1	Z1	X2	Y2	Z2	X3	Y3	Z3	X4	Y4	Z4	X5	Y5	Z5	X6	Y6	Z6	X7	Y7	Z7	X8	Y8	Z8	X9	Y9	Z9	X10	Y10	Z10	X11	Y11	Z11	X12	Y12	Z12	X13	Y13	Z13	X14	Y14	Z14	X15	Y15	Z15	X16	Y16	Z16	X17	Y17	Z17	X18	Y18	Z18	X19	Y19	Z19	X20	Y20	Z20	X21	Y21	Z21	X22	Y22	Z22	X23	Y23	Z23	X24	Y24	Z24	X25	Y25	Z25	X26	Y26	Z26	X27	Y27	Z27	X28	Y28	Z28	X29	Y29	Z29	X30	Y30	Z30	X31	Y31	Z31	X32	Y32	Z32	X33	Y33	Z33	X34	Y34	Z34	X35	Y35	Z35	X36	Y36	Z36	X37	Y37	Z37	X38	Y38	Z38	X39	Y39	Z39	X40	Y40	Z40	X41	Y41	Z41	X42	Y42	Z42	

552	  4.600000	916.314053	1045.255601	-454.422499	922.435366	1015.860679	-184.124229	738.860725	1063.937259	-350.117031	743.538993	1052.185371	-270.491579	873.379838	841.032492	-157.475232	918.473760	735.675793	-170.947154	848.558466	626.575981	-205.199684	899.583240	837.757784	-504.107071	1000.494088	747.465513	-490.702589	981.044699	619.944040	-458.399025	774.632383	423.789442	-274.698189	705.982349	441.738174	-209.420302	1053.876763	401.389702	-375.646204	1007.705689	317.787544	-420.254520	988.455523	213.021998	-342.402500	449.195273	528.247536	-282.422089	427.740488	295.533409	-284.856058	401.849611	365.993581	-198.649380	839.329885	101.983488	-322.657639	1073.341930	 75.360027	-302.555655	1001.899790	 53.937184	-394.541950	928.606203	1477.321949	-516.832542	959.935664	1512.462861	-174.544846	997.594265	1440.434765	-312.685204	869.647095	1536.656937	-339.844242	936.520987	1410.125784	-89.084401	920.220227	1318.454631	-90.767899	856.260103	1327.723646	-44.704602	823.721813	1199.999626	  6.206348	780.068155	1190.102133	-65.613874	899.152058	1386.390004	-591.610874	898.351051	1313.263035	-584.688327	801.640554	1314.352275	-588.366858	775.497543	1159.106660	-653.077913	731.569924	1150.600698	-578.697164	924.041217	1163.730954	-23.072547	1047.681206	1119.996161	-148.293113	1046.055375	1077.892181	-88.480602	866.880157	1132.343554	-629.938541	1005.442713	1112.797027	-509.624410	1000.481628	1049.400109	-543.610212	648.911689	360.968246	-280.976091	
553	  4.608333	914.701014	1044.751254	-455.232056	920.440841	1013.929688	-184.815081	736.876625	1062.435967	-349.393042	741.100630	1049.925067	-270.268741	874.612636	838.706276	-157.526609	926.372555	734.685587	-170.000492	861.141087	623.922298	-203.741446	895.607918	835.334721	-504.983091	993.821078	740.456233	-491.676413	970.969722	614.213560	-457.701441	794.780950	423.220097	-273.445935	726.591753	440.923168	-207.630225	1040.643498	395.365176	-376.295577	990.541793	312.882916	-421.086555	967.485321	209.698278	-342.797173	467.907792	527.722705	-279.280822	450.309590	294.668202	-281.354091	424.179136	364.791501	-194.849839	814.631300	102.541512	-322.732426	1048.647773	 74.407568	-302.619870	976.757366	 53.712556	-394.808995	929.116035	1472.966843	-516.841102	957.403621	1509.655022	-174.347232	996.131432	1436.766239	-311.872169	868.491223	1534.067003	-340.363831	932.063799	1407.358373	-89.719378	913.662295	1315.558502	-93.164491	850.119485	1325.076222	-47.007149	813.866257	1197.549086	  2.726401	771.782466	1188.652533	-69.948713	902.422156	1380.461037	-590.499042	904.714558	1306.673936	-582.813241	808.202118	1305.897214	-590.093054	789.132928	1148.988058	-654.686525	742.327841	1139.148069	-581.517382	913.764894	1156.263464	-23.061768	1037.994845	1101.509662	-142.758816	1032.850694	1062.188750	-81.045609	881.303725	1124.424534	-628.644379	1016.574923	1105.197496	-506.697360	1012.830818	1042.008793	-541.587540	669.275589	360.267914	-279.008646	
554	  4.616667	912.909247	1044.427698	-455.835048	918.753215	1013.079921	-186.222846	734.897541	1062.000540	-349.585294	738.968069	1048.746274	-270.760668	875.500414	836.701868	-157.764885	934.687512	734.797372	-169.214999	874.567546	621.817940	-201.662346	891.613375	834.011307	-506.054003	986.806317	733.569728	-492.479651	960.817247	609.420783	-457.839569	815.406919	423.301274	-272.357760	747.559044	440.009105	-206.012277	1026.051599	390.243635	-376.310252	972.732067	309.000633	-421.929570	946.106076	207.357986	-343.345532	486.663021	525.230256	-276.491768	473.991683	291.815298	-278.158587	447.129478	361.535267	-191.501989	789.880435	103.259095	-322.882082	1023.704928	 73.790230	-302.726918	951.532816	 53.646290	-395.082453	929.982220	1469.519407	-516.727258	954.768869	1507.654049	-173.891778	994.621538	1433.804668	-310.791305	866.924562	1531.881859	-340.916872	927.235038	1405.467928	-90.130656	907.285205	1313.842887	-95.018650	843.727292	1323.673288	-49.255054	803.743193	1196.571762	 -0.616055	763.127181	1188.724391	-74.181150	905.121821	1375.852433	-588.913833	910.944704	1301.878738	-581.125265	814.688716	1298.904050	-590.436223	803.008792	1140.812940	-655.435402	752.980621	1129.695454	-583.769935	903.044434	1150.834848	-23.066928	1026.986469	1085.518374	-136.842487	1018.149271	1048.516245	-73.977146	896.346656	1119.352837	-625.846638	1028.255321	1099.886138	-503.374888	1025.372635	1036.776899	-538.765799	690.000364	359.465940	-277.213525	
555	  4.625000	910.916204	1044.017414	-456.387052	917.136600	1013.193969	-187.899258	732.974921	1062.305584	-350.306477	736.907290	1048.530647	-271.522133	876.439879	835.353114	-158.008471	943.214662	736.279180	-168.560549	888.461222	620.810276	-199.380131	887.181404	833.385109	-507.049555	979.284036	728.229550	-493.240380	950.670793	605.981699	-458.987853	836.318085	424.340264	-271.445112	768.706495	439.155909	-204.566357	1010.318316	386.023802	-376.028733	954.504011	306.086393	-422.672658	924.549069	205.752377	-343.950729	505.310672	520.800271	-274.048988	498.549842	287.097556	-275.416803	470.585408	356.273550	-188.627737	765.262707	104.186103	-323.006357	998.706500	 73.268424	-302.973045	926.320302	 53.569778	-395.344637	931.201841	1467.186619	-516.643392	951.888357	1506.403909	-173.163576	993.070578	1431.885333	-309.487288	865.420274	1530.420322	-341.645190	921.937247	1404.352522	-90.196222	900.888248	1313.131901	-95.948565	836.741023	1323.514581	-51.327109	793.041037	1197.202840	 -3.607376	753.986590	1190.334807	-78.083090	907.754576	1372.327290	-587.421945	916.684086	1298.730955	-579.729014	820.787313	1293.002001	-589.879047	816.276405	1134.593232	-655.386714	763.437704	1122.262203	-585.344966	891.445259	1147.468899	-22.758027	1014.754248	1072.906969	-130.674059	1002.063734	1037.467781	-67.704071	910.686036	1116.441021	-622.420602	1040.032865	1097.369942	-499.944914	1037.743086	1034.125442	-535.161771	710.918825	358.715189	-275.591327	
556	  4.633333	908.819651	1043.566327	-457.160222	915.413023	1014.186686	-189.460715	731.174581	1063.186162	-351.159770	734.742946	1049.192075	-272.174303	877.826240	835.111866	-158.108388	951.729056	739.284152	-167.944382	902.355779	621.538259	-197.219890	881.914935	832.940628	-507.737594	971.099198	724.829106	-493.999969	940.126567	603.699324	-460.719488	857.315183	426.528442	-270.699745	789.856983	438.601428	-203.260236	993.642110	382.405998	-375.907235	935.772987	303.795314	-423.193115	902.817654	204.475661	-344.398074	523.680014	514.480375	-271.911231	523.970107	280.660841	-273.250308	494.510153	349.029605	-186.253372	740.795210	105.270526	-322.935050	973.745929	 72.647658	-303.242677	901.137968	 53.458739	-395.516753	932.803475	1466.137261	-516.616899	948.735237	1505.767135	-172.275666	991.513064	1431.110780	-308.045759	864.328166	1529.891280	-342.496216	916.144916	1404.067848	-89.901602	894.162831	1313.352767	-95.818413	828.864473	1324.647465	-53.276058	781.465189	1199.472485	 -6.110215	744.192274	1193.492847	-81.482758	910.918436	1370.022415	-586.374735	921.866992	1297.136900	-578.562318	826.423277	1288.195221	-589.169138	828.251987	1130.240338	-654.734142	773.601272	1116.794878	-586.064571	878.471403	1145.925646	-21.906225	1001.459610	1064.252261	-124.648793	984.887554	1029.508476	-62.612730	923.095028	1114.788949	-619.406645	1051.239560	1097.874711	-496.517192	1049.589450	1034.319590	-530.995078	731.854829	358.253916	-274.110229	
557	  4.641667	906.763230	1043.339374	-458.261695	913.738326	1015.914470	-190.769336	729.551928	1064.595831	-351.897317	732.631069	1050.587414	-272.580369	879.817337	836.267352	-158.019757	960.005919	743.836354	-167.286687	915.825875	624.340592	-195.308794	875.727474	832.436379	-508.012691	962.309470	722.841866	-494.674074	928.809580	602.119084	-462.430242	878.172946	429.830059	-270.086063	810.822401	438.557467	-202.069243	976.140934	379.081726	-376.203632	916.319409	301.857881	-423.456315	880.812207	203.313473	-344.566091	541.635527	506.325920	-270.037165	550.412169	272.686713	-271.723611	518.951338	339.849202	-184.417425	716.386946	106.431704	-322.571190	948.836746	 71.888891	-303.364590	875.958422	 53.391901	-395.538952	934.799853	1466.434583	-516.535947	945.378410	1505.640501	-171.320614	990.016924	1431.363456	-306.508373	863.666851	1530.277363	-343.277276	909.879013	1404.687369	-89.295149	886.786049	1314.511669	-94.771835	819.962930	1327.145006	-55.225492	768.914920	1203.313761	 -8.101827	733.536557	1198.190166	-84.291060	914.918164	1369.268091	-585.732114	926.690291	1297.052228	-577.459838	831.698277	1284.917018	-588.941755	838.657185	1127.646456	-653.692441	783.328641	1113.240280	-585.822511	863.931230	1145.964672	-20.623401	987.312717	1059.672311	-119.337461	967.058869	1024.915704	-58.907891	933.097033	1114.015860	-617.381890	1061.219224	1101.336234	-493.001158	1060.661980	1037.431807	-526.581013	752.601488	358.307859	-272.744247	
558	  4.650000	904.891996	1043.566366	-459.545259	912.540299	1018.152616	-191.899148	728.153057	1066.493906	-352.427808	730.994472	1052.494627	-272.806435	882.273555	838.817205	-157.781493	967.854453	749.836879	-166.569699	928.572086	629.117450	-193.604487	868.942425	832.000930	-507.925199	953.130798	721.448514	-495.117935	916.607058	600.875747	-463.676086	898.663299	433.992526	-269.587173	831.413372	439.110718	-201.006300	957.855393	375.913446	-376.799118	896.032607	300.190055	-423.482844	858.470634	202.292843	-344.491710	559.128467	496.392207	-268.420599	578.113556	263.402886	-270.849910	544.042005	328.844700	-183.166774	691.966439	107.647093	-321.987010	923.969700	 71.103372	-303.299677	850.771389	 53.438239	-395.422308	937.135067	1468.032814	-516.203809	941.898762	1506.043697	-170.283018	988.651950	1432.475401	-304.837929	863.199953	1531.411668	-343.793438	903.177089	1406.220643	-88.433814	878.544174	1316.662551	-93.166508	810.115983	1331.056227	-57.231490	755.553878	1208.610540	 -9.683642	721.839405	1204.342105	-86.520166	919.615389	1370.255671	-585.180068	931.399886	1298.409550	-576.253558	836.747261	1283.719340	-589.395876	847.614047	1126.723746	-652.389476	792.490078	1111.536929	-584.711437	848.187688	1147.597120	-19.340662	972.560166	1058.839032	-115.232252	949.075245	1023.726230	-56.541750	941.149624	1114.512361	-616.112690	1069.584180	1107.474644	-489.248458	1070.848476	1043.338835	-522.178047	772.939042	358.983883	-271.503394	
559	  4.658333	903.316900	1044.274395	-460.768359	912.108009	1020.699573	-192.960167	727.012465	1068.777741	-352.733254	730.114375	1054.715267	-272.948516	884.929637	842.525484	-157.441617	975.153626	757.072922	-165.835427	940.447454	635.469879	-191.996477	862.105657	831.942685	-507.622729	943.750494	720.099712	-495.207704	903.586028	599.848917	-464.252951	918.614451	438.662467	-269.248262	851.471605	440.187528	-200.116134	938.802704	372.989932	-377.315394	875.034601	298.832281	-423.263475	835.829073	201.552487	-344.283209	576.234649	484.734266	-267.101843	607.287023	253.077034	-270.618293	569.964174	316.220103	-182.541988	667.547509	108.999881	-321.380150	899.139138	 70.450339	-303.169800	825.604475	 53.600381	-395.231518	939.688875	1470.820804	-515.453553	938.314170	1507.101139	-169.076676	987.450564	1434.371764	-302.962764	862.678205	1533.142145	-343.962173	896.086244	1408.657897	-87.364425	869.439679	1319.880483	-91.442245	799.604160	1336.352726	-59.216271	741.725693	1215.242771	-11.053417	709.025262	1211.785046	-88.289057	924.579512	1372.873536	-584.404113	936.084772	1301.091368	-574.863907	841.642532	1284.859165	-590.212401	855.445636	1127.397949	-650.846342	800.987557	1111.585551	-582.991820	832.037625	1151.081357	-18.530548	957.471114	1061.147989	-112.505939	931.391145	1025.711173	-55.243291	948.200773	1117.006700	-614.776257	1076.320143	1115.882146	-485.207816	1080.137556	1051.746865	-517.912124	792.700515	360.211252	-270.430830	
